<?xml version="1.0" encoding="UTF-8"?>
<!DOCTYPE svg PUBLIC "-//W3C//DTD SVG 1.1//EN" "http://www.w3.org/Graphics/SVG/1.1/DTD/svg11.dtd">
<!-- Creator: CorelDRAW 2021 (64-Bit) -->
<svg xmlns="http://www.w3.org/2000/svg" xml:space="preserve" width="10.118in" height="7.153in" version="1.1" style="shape-rendering:geometricPrecision; text-rendering:geometricPrecision; image-rendering:optimizeQuality; fill-rule:evenodd; clip-rule:evenodd"
viewBox="0 0 10118 7153"
 xmlns:xlink="http://www.w3.org/1999/xlink"
 xmlns:xodm="http://www.corel.com/coreldraw/odm/2003">
 <defs>
  <style type="text/css">
   <![CDATA[
    .fil1 {fill:#000A16}
    .fil2 {fill:#0064E0}
    .fil4 {fill:#29BE3E}
    .fil3 {fill:#E61525}
    .fil5 {fill:#FC7E24}
    .fil0 {fill:url(#id0)}
   ]]>
  </style>
  <linearGradient id="id0" gradientUnits="userSpaceOnUse" x1="3539.78" y1="3742.36" x2="7292.6" y2="3733.61">
   <stop offset="0" style="stop-opacity:1; stop-color:#0064E0"/>
   <stop offset="1" style="stop-opacity:1; stop-color:#0BA6FB"/>
  </linearGradient>
 </defs>
 <g id="Layer_x0020_1">
  <metadata id="CorelCorpID_0Corel-Layer"/>
  <g id="_1523056635104">
   <path class="fil0" d="M5054.96 2837.12c555.69,-67.12 999.82,356.12 1052.19,839.32 59.63,550.17 -357.36,989.09 -843.64,1040.42 -556.94,58.78 -992.05,-352.47 -1047.65,-833.59 -64.36,-556.96 351.72,-987.27 839.1,-1046.14zm-1536.86 777.46c66.74,636.33 622.79,659.33 1040.96,1065.98l187.21 195.28c33.3,33.7 56.58,65.54 91.69,99.69 259.65,252.46 512.92,259.44 856.71,127.89 551.45,-211.03 895.6,-727.71 907.6,-1385.85 4.42,-243.02 -33.67,-457.49 -105.97,-665.11 -94.24,-270.62 -262.64,-510.27 -475.3,-672.42 -211.27,-161.11 -599.15,-327.9 -846.7,-172.41 -87.85,55.18 -142.04,110.14 -219.32,170.45 -334.8,261.3 -471.38,212.69 -805.13,342.56 -331.04,128.81 -681.34,421 -631.74,893.94z"/>
   <ellipse class="fil1" transform="matrix(4.6902 -2.33295 2.33295 4.6902 4527.42 2275.8)" rx="110.43" ry="36.93"/>
   <path class="fil2" d="M5425.84 3108.19c173.76,74.92 307.23,225.53 358.83,410.32 5.06,3.79 10.97,7.71 13.33,9.52 252.49,193.34 220.31,613.88 -87.87,754.98 -82.76,37.9 -142.1,41.96 -243.85,41.96 -20.1,0 -40.28,0.08 -60.51,0.17l206.41 -300.96 0 -0.01c10.02,-6.54 20,-14.7 30.22,-24.87 102.93,-102.42 41.46,-271.5 -100.7,-290.86 0.34,-6.46 0.52,-12.98 0.52,-19.54 0,-115.44 -53.41,-218.39 -136.83,-285.56 -62.83,-50.59 -142.69,-80.9 -229.63,-80.9 -202.37,0 -366.45,164.08 -366.45,366.46 0,7.57 0.26,15.11 0.71,22.56 -90.69,15.73 -167.46,103.99 -141.12,208.28 9.98,39.54 28.02,68.5 52.01,88.96l-0.73 -0.63 -154.41 225.12c-113.53,-94.3 -178.16,-204.72 -175.76,-366.86 1.98,-133.35 65.85,-242.85 157.16,-324.29 5.55,-4.94 11.35,-9.23 16.93,-13.38 55.59,-212.77 219.26,-381.83 428.85,-445.05 99.95,-31.52 213.92,-36.73 321.55,-12.6 38.8,8.69 73.81,20.79 106.95,35.22l0.4 0.17 1.8 0.79 2.21 0.98z"/>
   <path class="fil3" d="M4791.3 4322.37l186.56 -272.02c-39.87,0.03 -79.78,0.06 -119.73,0.06 -42.49,0 -81.18,-7.22 -112.85,-24.82l-154.29 224.95c57.24,36.85 117.86,63.76 200.3,71.83z"/>
   <path class="fil4" d="M5015.01 4050.33l-188.12 274.28c0.45,0.02 0.91,0.03 1.36,0.04 81.35,2.28 164.87,1.45 247.66,0.76l188.82 -275.31c-83.23,0.07 -166.41,0.16 -249.71,0.24z"/>
   <path class="fil5" d="M5301.88 4050.06l-188.63 275.03c21.63,-0.16 43.17,-0.28 64.59,-0.29 63.14,1.2 126.99,0.9 190.67,0.54l192.17 -280.18c-33.5,6.9 -72.1,4.84 -124.3,4.84 -44.88,0 -89.7,0.03 -134.5,0.06z"/>
  </g>
 </g>
</svg>
